<?xml version="1.0" standalone="no"?>
<!DOCTYPE svg PUBLIC "-//W3C//DTD SVG 20010904//EN"
 "http://www.w3.org/TR/2001/REC-SVG-20010904/DTD/svg10.dtd">
<svg version="1.0" xmlns="http://www.w3.org/2000/svg"
 width="650.000000pt" height="650.000000pt" viewBox="0 0 650.000000 650.000000"
 preserveAspectRatio="xMidYMid meet">
<metadata>
Created by potrace 1.14, written by Peter Selinger 2001-2017
</metadata>
<g transform="translate(0.000000,650.000000) scale(0.100000,-0.100000)"
fill="#000000" stroke="none">
<path d="M363 3468 c3 -1498 5 -1689 19 -1738 83 -288 211 -459 463 -618 20
-12 39 -21 110 -52 95 -42 226 -67 353 -68 85 -1 130 4 220 23 12 3 34 7 48
10 38 8 159 58 162 67 2 4 9 8 16 8 6 0 47 23 89 50 86 57 179 146 245 235 44
60 128 215 116 215 -4 0 -2 6 4 13 6 6 21 48 33 92 l23 80 3 1683 3 1682 -225
0 -225 0 0 -1588 c0 -1090 -3 -1607 -11 -1648 -35 -192 -191 -355 -385 -400
-251 -58 -496 76 -594 324 l-20 54 0 1629 0 1629 -225 0 -226 0 4 -1682z"/>
<path d="M2520 3370 l0 -1440 195 0 195 0 0 1440 0 1440 -195 0 -195 0 0
-1440z"/>
<path d="M3280 3370 l0 -1440 195 0 195 0 0 1440 0 1440 -195 0 -195 0 0
-1440z"/>
<path d="M3930 4802 l-35 -3 2 -1417 c1 -779 2 -1425 2 -1435 1 -16 30 -17
509 -16 515 1 630 7 783 43 481 111 806 453 919 965 10 47 21 109 24 136 4 28
9 70 12 95 6 51 6 335 0 395 -13 116 -18 160 -21 165 -2 3 -6 25 -10 48 -3 24
-19 87 -35 140 -78 263 -227 486 -423 633 -136 102 -364 201 -514 224 -21 3
-50 7 -63 10 -69 13 -210 18 -642 19 -260 0 -489 0 -508 -2z m1033 -316 c196
-27 318 -71 454 -164 218 -149 355 -417 390 -762 9 -86 9 -276 0 -370 -50
-540 -334 -861 -832 -939 -33 -5 -211 -8 -395 -8 l-334 2 -1 1115 c0 613 1
1120 2 1125 4 11 636 12 716 1z"/>
</g>
</svg>
